<svg viewBox="0 0 24 24" xmlns="http://www.w3.org/2000/svg" id="Sea-Transport-Sailing-Boat--Streamline-Ultimate" height="24" width="24">
<desc>Sea Transport Sailing Boat Streamline Icon: https://streamlinehq.com</desc>
<path d="M0.9944 22.9854C2.608 23.1851 4.2255 22.646 5.3966 21.518C7.163 23.4745 10.2336 23.4745 12 21.518C13.7664 23.4745 16.837 23.4745 18.6034 21.518C19.7745 22.646 21.392 23.1851 23.0057 22.9854" fill="none" stroke="#000000" stroke-linecap="round" stroke-linejoin="round" stroke-width="1.5"></path>
<path d="M21.5451 20.0584C22.1316 19.5188 22.6066 18.8693 22.943 18.1469C23.1582 17.6616 22.8028 17.1155 22.2719 17.1158H1.7281C1.1972 17.1155 0.8418 17.6616 1.057 18.1469C1.4637 19.011 2.061 19.7716 2.8042 20.3715" fill="none" stroke="#000000" stroke-linecap="round" stroke-linejoin="round" stroke-width="1.5"></path>
<path d="M11.2663 17.1158V2.2136C11.2666 1.2595 10.2338 0.6628 9.4074 1.1397C9.2607 1.2243 9.1329 1.3381 9.0319 1.474L2.4823 11.5758C2.1728 12.0482 2.4908 12.6785 3.0547 12.7104C3.069 12.7112 3.0833 12.7116 3.0977 12.7115L11.2643 12.6998" fill="none" stroke="#000000" stroke-linecap="round" stroke-linejoin="round" stroke-width="1.5"></path>
<path d="M15.5521 6.0103C15.2468 5.5351 14.5416 5.5686 14.2827 6.0706C14.229 6.1748 14.201 6.2903 14.2011 6.4075V14.1809H19.4604C20.0259 14.1798 20.3782 13.5669 20.0945 13.0777C20.0891 13.0683 20.0835 13.0591 20.0777 13.05Z" fill="none" stroke="#000000" stroke-linecap="round" stroke-linejoin="round" stroke-width="1.5"></path></svg>